# xmcd CD database file
#
# Track frame offsets:
#	182
#	14110
#	30495
#	48610
#	64890
#	79930
#	96237
#	113842
#	130260
#	146492
#	161757
#	177430
#
# Disc length: 2569 seconds
#
# Revision: 0
# Processed by: cddbd v1.5PL3 Copyright (c) Steve Scherf et al.
# Submitted via: CDex 1.50
#
DISCID=ab0a070c
DTITLE=Shabba Ranks - King of the Dancehall
DYEAR=1900
DGENRE=Reggae
TTITLE0=Real Real
TTITLE1=Model
TTITLE2=Wine Wine
TTITLE3=Dem Bow
TTITLE4=Pay Down Pon It
TTITLE5=Live Blanket
TTITLE6=Serious Time
TTITLE7=Roots and Culture
TTITLE8=Shock Out
TTITLE9=Peeny Peeny
TTITLE10=Hot Like Fire
TTITLE11=Think Positive
EXTD=
EXTT0=
EXTT1=
EXTT2=
EXTT3=
EXTT4=
EXTT5=
EXTT6=
EXTT7=
EXTT8=
EXTT9=
EXTT10=
EXTT11=
PLAYORDER=
